<svg xmlns="http://www.w3.org/2000/svg" width="217" height="22" viewBox="0 0 217 22" fill="none">
  <path d="M58.7377 21V11.8777H61.7984L62.2576 8.32156H58.7377V6.05147C58.7377 5.0222 59.0223 4.32076 60.5 4.32076L62.3815 4.31999V1.13923C62.0561 1.09695 60.9392 1 59.6392 1C56.9246 1 55.0661 2.65697 55.0661 5.69927V8.32156H51.9961V11.8777H55.0661V21H58.7377Z" fill="white"/>
  <path d="M21.9399 6.46808C21.8884 5.29913 21.6993 4.49549 21.4285 3.79912C21.1492 3.05995 20.7194 2.39817 20.1563 1.84802C19.6062 1.28932 18.9401 0.855181 18.2094 0.580193C17.509 0.309403 16.7096 0.12037 15.5407 0.0688308C14.363 0.0129267 13.9891 0 11.0022 0C8.01526 0 7.64139 0.0129267 6.46808 0.0644659C5.29913 0.116005 4.49549 0.305206 3.79929 0.575828C3.05995 0.855181 2.39817 1.28495 1.84802 1.84802C1.28932 2.39817 0.855349 3.06431 0.580193 3.79493C0.309403 4.49549 0.12037 5.29477 0.0688308 6.46371C0.0129267 7.64139 0 8.01526 0 11.0022C0 13.9891 0.0129267 14.363 0.0644659 15.5363C0.116005 16.7052 0.305206 17.5089 0.575996 18.2052C0.855349 18.9444 1.28932 19.6062 1.84802 20.1563C2.39817 20.715 3.06431 21.1492 3.79493 21.4242C4.49549 21.695 5.29477 21.884 6.46388 21.9355C7.63703 21.9872 8.01107 22 10.998 22C13.9849 22 14.3588 21.9872 15.5321 21.9355C16.701 21.884 17.5047 21.695 18.2009 21.4242C19.6794 20.8525 20.8483 19.6836 21.42 18.2052C21.6906 17.5047 21.8798 16.7052 21.9313 15.5363C21.9829 14.363 21.9958 13.9891 21.9958 11.0022C21.9958 8.01526 21.9914 7.64139 21.9399 6.46808ZM19.9587 15.4503C19.9114 16.5248 19.7309 17.105 19.5805 17.4918C19.2108 18.4502 18.4502 19.2108 17.4918 19.5805C17.105 19.7309 16.5206 19.9114 15.4503 19.9586C14.2899 20.0103 13.9419 20.023 11.0065 20.023C8.07117 20.023 7.71879 20.0103 6.5626 19.9586C5.48816 19.9114 4.90797 19.7309 4.52118 19.5805C4.04423 19.4042 3.61009 19.1249 3.25771 18.7596C2.8924 18.4028 2.61305 17.9731 2.43678 17.4961C2.28636 17.1093 2.10589 16.5248 2.05871 15.4547C2.00701 14.2943 1.99425 13.9461 1.99425 11.0107C1.99425 8.07536 2.00701 7.72298 2.05871 6.56696C2.10589 5.49253 2.28636 4.91234 2.43678 4.52554C2.61305 4.04843 2.8924 3.61446 3.26208 3.26191C3.61865 2.8966 4.04843 2.61725 4.52554 2.44114C4.91234 2.29072 5.49689 2.11025 6.56696 2.06291C7.72735 2.01137 8.07553 1.99844 11.0107 1.99844C13.9505 1.99844 14.2985 2.01137 15.4547 2.06291C16.5291 2.11025 17.1093 2.29072 17.4961 2.44114C17.9731 2.61725 18.4072 2.8966 18.7596 3.26191C19.1249 3.61865 19.4042 4.04843 19.5805 4.52554C19.7309 4.91234 19.9114 5.49673 19.9587 6.56696C20.0103 7.72735 20.0232 8.07536 20.0232 11.0107C20.0232 13.9461 20.0103 14.2899 19.9587 15.4503Z" fill="white"/>
  <path d="M11.0031 5.35059C7.88302 5.35059 5.35156 7.88188 5.35156 11.0021C5.35156 14.1223 7.88302 16.6536 11.0031 16.6536C14.1233 16.6536 16.6546 14.1223 16.6546 11.0021C16.6546 7.88188 14.1233 5.35059 11.0031 5.35059ZM11.0031 14.6681C8.97895 14.6681 7.33708 13.0264 7.33708 11.0021C7.33708 8.9778 8.97895 7.3361 11.0031 7.3361C13.0274 7.3361 14.6691 8.9778 14.6691 11.0021C14.6691 13.0264 13.0274 14.6681 11.0031 14.6681Z" fill="white"/>
  <path d="M18.1975 5.12699C18.1975 5.85559 17.6067 6.44635 16.878 6.44635C16.1494 6.44635 15.5586 5.85559 15.5586 5.12699C15.5586 4.39822 16.1494 3.80762 16.878 3.80762C17.6067 3.80762 18.1975 4.39822 18.1975 5.12699Z" fill="white"/>
  <path d="M114.377 21.9995L114.382 21.9986V13.9301C114.382 9.98296 113.533 6.94238 108.918 6.94238C106.7 6.94238 105.211 8.15972 104.603 9.3138H104.539V7.31088H100.164V21.9986H104.72V14.7258C104.72 12.8109 105.083 10.9592 107.454 10.9592C109.791 10.9592 109.826 13.1445 109.826 14.8486V21.9995H114.377Z" fill="white"/>
  <path d="M92.7422 7.3125H97.3035V22.0002H92.7422V7.3125Z" fill="white"/>
  <path d="M95.0246 0C93.5662 0 92.3828 1.18342 92.3828 2.64183C92.3828 4.10025 93.5662 5.30841 95.0246 5.30841C96.4831 5.30841 97.6665 4.10025 97.6665 2.64183C97.6656 1.18342 96.4821 0 95.0246 0Z" fill="white"/>
  <path d="M159.432 2.25443C157.917 0.800674 155.822 0 153.531 0C150.031 0 147.879 1.43453 146.689 2.63788C145.223 4.12087 144.383 6.08999 144.383 8.04044C144.383 10.4894 145.407 12.369 147.123 13.0683C147.238 13.1155 147.354 13.1392 147.467 13.1392C147.829 13.1392 148.116 12.9025 148.215 12.5226C148.273 12.3047 148.407 11.7671 148.466 11.5338C148.59 11.0729 148.489 10.8512 148.217 10.5303C147.721 9.94328 147.49 9.24911 147.49 8.3457C147.49 5.66226 149.488 2.8103 153.191 2.8103C156.13 2.8103 157.955 4.48041 157.955 7.16881C157.955 8.86531 157.59 10.4364 156.926 11.593C156.465 12.3965 155.654 13.3544 154.409 13.3544C153.87 13.3544 153.387 13.1333 153.082 12.7477C152.793 12.3832 152.698 11.9123 152.814 11.4216C152.945 10.8671 153.124 10.2888 153.297 9.72963C153.612 8.70843 153.91 7.74391 153.91 6.97439C153.91 5.65815 153.101 4.77374 151.897 4.77374C150.366 4.77374 149.167 6.32812 149.167 8.31242C149.167 9.28559 149.426 10.0135 149.543 10.293C149.35 11.1098 148.204 15.9661 147.987 16.8819C147.861 17.4165 147.104 21.6388 148.357 21.9755C149.765 22.3537 151.024 18.2415 151.152 17.7768C151.255 17.3989 151.619 15.9699 151.841 15.0915C152.521 15.7461 153.615 16.1887 154.68 16.1887C156.687 16.1887 158.492 15.2854 159.763 13.6454C160.995 12.0547 161.674 9.83756 161.674 7.40275C161.674 5.49927 160.857 3.62276 159.432 2.25443Z" fill="white"/>
  <path d="M216.291 3.36769C215.376 3.76923 214.4 4.03538 213.383 4.16462C214.43 3.54 215.228 2.55846 215.603 1.37538C214.628 1.95692 213.551 2.36769 212.403 2.59692C211.477 1.61077 210.157 1 208.717 1C205.923 1 203.674 3.26769 203.674 6.04769C203.674 6.44769 203.708 6.83231 203.791 7.19846C199.596 6.99385 195.883 4.98308 193.39 1.92C192.954 2.67538 192.699 3.54 192.699 4.47077C192.699 6.21846 193.599 7.76769 194.94 8.66462C194.13 8.64923 193.334 8.41385 192.66 8.04308C192.66 8.05846 192.66 8.07846 192.66 8.09846C192.66 10.5508 194.41 12.5877 196.703 13.0569C196.293 13.1692 195.845 13.2231 195.38 13.2231C195.057 13.2231 194.731 13.2046 194.425 13.1369C195.079 15.1354 196.934 16.6046 199.14 16.6523C197.423 17.9954 195.243 18.8046 192.883 18.8046C192.47 18.8046 192.073 18.7862 191.676 18.7354C193.911 20.1769 196.56 21 199.417 21C208.703 21 213.78 13.3077 213.78 6.64C213.78 6.41692 213.773 6.20154 213.762 5.98769C214.763 5.27692 215.605 4.38923 216.291 3.36769Z" fill="white"/>
</svg>